<?xml version="1.0" encoding="iso-8859-1"?>
<!-- Generator: Adobe Illustrator 27.7.0, SVG Export Plug-In . SVG Version: 6.00 Build 0)  -->
<svg version="1.1" id="Layer_1" xmlns="http://www.w3.org/2000/svg" xmlns:xlink="http://www.w3.org/1999/xlink" x="0px" y="0px"
	 viewBox="0 0 420.87 173.913" style="enable-background:new 0 0 420.87 173.913;" xml:space="preserve">
<g>
	<g>
		<polygon style="fill:#B3D5F1;" points="96.13,43.059 95.641,107.658 112.759,97.524 113.112,53.039 		"/>
	</g>
	<g>
		<polygon style="fill:#282560;" points="60.233,41.004 113.121,71.749 113.112,53.039 77.162,30.937 		"/>
	</g>
	<g>
		<polygon style="fill:#2A3B8F;" points="35.996,72.008 92.788,41.107 76.253,30.988 36.224,53.436 		"/>
	</g>
	<g>
		<polygon style="fill:#1D76BB;" points="53.487,110.053 54.122,43.516 36.224,53.436 35.378,98.578 		"/>
	</g>
	<g>
		<polygon style="fill:#28A8E0;" points="90.944,110.053 35.378,78.313 35.345,99.655 71.967,121.472 		"/>
	</g>
	<g>
		<polygon style="fill:#8CC5EB;" points="95.365,88.284 54.843,111.551 71.904,120.893 95.641,107.658 		"/>
	</g>
	<g>
		<path style="fill:#2B3C90;" d="M95.61,107.641h-0.006c-0.354,0-0.64-0.229-0.633-0.511l0.488-45.968
			c0-0.281,0.284-0.504,0.638-0.504h0.007c0.353,0,0.641,0.232,0.634,0.515l-0.488,45.968
			C96.25,107.421,95.962,107.641,95.61,107.641z"/>
	</g>
	<g>
		<path style="fill:#29AAE1;" d="M113.247,72.086c-0.082,0-0.166-0.022-0.239-0.066L76.344,50.491
			c-0.224-0.13-0.303-0.417-0.167-0.645c0.128-0.225,0.412-0.303,0.646-0.168l36.662,21.527c0.226,0.132,0.303,0.42,0.168,0.646
			C113.567,72.002,113.408,72.086,113.247,72.086z"/>
	</g>
	<g>
		<path style="fill:#231F20;" d="M54.094,62.786c-0.164,0-0.323-0.081-0.414-0.231c-0.126-0.216-0.048-0.496,0.178-0.621
			l37.939-20.668c0.231-0.133,0.52-0.05,0.646,0.17c0.13,0.216,0.051,0.497-0.177,0.621L54.33,62.725
			C54.253,62.767,54.173,62.786,54.094,62.786z"/>
	</g>
	<g>
		<path style="fill:#595A5C;" d="M53.455,88.357h-0.006c-0.359-0.003-0.651-0.214-0.651-0.475l0.511-43.669
			c0.005-0.257,0.299-0.47,0.658-0.47h0.005c0.36,0.005,0.654,0.218,0.654,0.479L54.113,87.89
			C54.106,88.147,53.814,88.357,53.455,88.357z"/>
	</g>
	<g>
		<path style="fill:#2A3B8F;" d="M72.694,100.449c-0.077,0-0.156-0.021-0.232-0.066L35.69,78.498
			c-0.216-0.127-0.285-0.405-0.156-0.629c0.129-0.215,0.404-0.295,0.62-0.16l36.773,21.885c0.213,0.127,0.286,0.407,0.154,0.629
			C73.001,100.366,72.846,100.449,72.694,100.449z"/>
	</g>
	<g>
		<path style="fill:#231F20;" d="M36.686,54.177c-0.209,0-0.41-0.11-0.522-0.307c-0.16-0.284-0.062-0.65,0.227-0.815l56.401-32.138
			c0.274-0.167,0.646-0.062,0.818,0.23c0.161,0.285,0.061,0.65-0.229,0.816l-56.4,32.138C36.889,54.153,36.787,54.177,36.686,54.177
			z"/>
	</g>
	<g>
		<path style="fill:#29AAE1;" d="M76.854,32.024c-0.101-0.18-0.105-0.407,0.005-0.603c0.167-0.282,0.536-0.38,0.823-0.214
			l55.965,32.892c0.281,0.152,0.377,0.529,0.211,0.823c-0.167,0.282-0.535,0.376-0.823,0.207L77.069,32.241
			C76.977,32.189,76.905,32.113,76.854,32.024z"/>
	</g>
	<g>
		<path style="fill:#2B3C90;" d="M112.658,53.82c0.104-0.181,0.299-0.301,0.521-0.302c0.329,0.002,0.597,0.272,0.597,0.606
			l-0.184,64.912c0.01,0.317-0.268,0.593-0.605,0.597c-0.327-0.003-0.596-0.271-0.598-0.606l0.188-64.913
			C112.576,54.009,112.609,53.907,112.658,53.82z"/>
	</g>
	<g>
		<path style="fill:#1D76BB;" d="M112.073,97.635c0.208,0.001,0.407,0.11,0.521,0.307c0.16,0.285,0.06,0.649-0.229,0.816
			l-56.505,31.956c-0.273,0.163-0.646,0.058-0.817-0.232c-0.16-0.287-0.059-0.652,0.23-0.817l56.505-31.955
			C111.871,97.657,111.974,97.635,112.073,97.635z"/>
	</g>
	<g>
		<path style="fill:#2A3B8F;" d="M71.97,120.866c0.104,0.184,0.108,0.411-0.003,0.606c-0.168,0.282-0.533,0.378-0.823,0.211
			L15.152,88.839c-0.281-0.149-0.376-0.527-0.21-0.821c0.166-0.281,0.533-0.378,0.82-0.209l55.995,32.843
			C71.845,120.702,71.921,120.781,71.97,120.866z"/>
	</g>
	<g>
		<path style="fill:#595A5C;" d="M36.123,99.395c-0.103,0.18-0.298,0.301-0.522,0.303c-0.328-0.002-0.598-0.272-0.599-0.604
			l0.091-64.917c-0.011-0.315,0.267-0.59,0.603-0.594c0.328,0.001,0.595,0.27,0.597,0.603l-0.088,64.916
			C36.204,99.205,36.173,99.306,36.123,99.395z"/>
	</g>
	<g>
		<path style="fill:#1D76BB;" d="M54.729,111.774c-0.163,0-0.326-0.086-0.415-0.244c-0.126-0.227-0.048-0.527,0.181-0.657
			l40.018-23.217c0.232-0.123,0.519-0.046,0.646,0.184c0.128,0.23,0.048,0.526-0.181,0.659l-40.018,23.216
			C54.888,111.759,54.808,111.774,54.729,111.774z"/>
	</g>
</g>
<g>
	<g>
		<g>
			<path style="fill:#231F20;" d="M170.529,104.981c0,11.128-5.343,16.914-15.281,16.914c-13.948,0-15.284-9.052-15.284-22.999
				V84.209h13.059v21.513c0,3.71,0,5.936,2.226,5.936c1.335,0,2.224-1.187,2.224-3.113c0-0.297,0-1.189,0-2.822V94.889
				c0-11.274-2.224-13.054-8.457-20.919c-5.191-6.38-9.051-10.386-9.051-20.03v-8.459c0-8.306,5.641-14.538,15.284-14.538
				c11.127,0,15.281,6.233,15.281,18.844c0,0.147,0,0.594,0,1.633v8.159h-13.058V46.968c0-1.336,0-2.224,0-2.67
				c0-2.079-0.889-3.116-2.224-3.116c-2.077,0-2.226,1.78-2.226,4.597c0,0.446,0,0.743,0,1.189v5.342
				c0,8.902,5.191,12.165,11.572,20.624c4.451,5.785,5.934,10.682,5.934,17.656v8.307
				C170.529,102.162,170.529,104.092,170.529,104.981z"/>
		</g>
		<g>
			<path style="fill:#231F20;" d="M188.333,105.128c0,3.71,0.146,5.937,2.376,5.937c1.335,0,2.077-1.188,2.077-3.113
				c0-0.3,0.146-1.19,0.146-2.823V32.28h12.613v88.279h-11.574v-4.45c-1.186,3.561-3.855,5.489-7.715,5.489
				c-9.496,0-10.537-7.419-10.537-23.146V32.28h12.613V105.128z"/>
		</g>
		<g>
			<path style="fill:#231F20;" d="M213.109,150.553V32.28h11.722v4.452c1.779-4.156,4.008-5.492,8.012-5.492
				c9.348,0,10.535,7.565,10.535,23.146v44.066c0,15.727-1.188,23.146-10.535,23.146c-3.561,0-5.785-1.336-6.973-3.856v32.811
				H213.109z M225.87,104.832c0,3.712,0,5.785,2.227,5.785c1.334,0,2.223-1.186,2.223-2.816c0-0.297,0-1.336,0-2.969V47.414
				c0-1.339,0-2.076,0-2.227c0-2.373-0.738-3.709-2.223-3.709c-1.336,0-2.227,1.336-2.227,2.967c0,1.187,0,2.226,0,2.969V104.832z"
				/>
		</g>
		<g>
			<path style="fill:#231F20;" d="M248.124,49.638c0-12.608,4.305-18.694,15.283-18.694c10.533,0,15.283,5.789,15.283,17.805
				c0,0.446,0,2.226,0,5.192v22.85h-17.509v28.932c0,3.71,0,5.936,2.226,5.936c1.336,0,2.225-1.187,2.225-3.113
				c0-0.297,0-1.189,0-2.822v-19.88h13.059v13.055c0,3.266,0,5.195,0,6.085c0,11.128-5.193,16.914-15.283,16.914
				c-13.947,0-15.283-9.052-15.283-22.999V53.94C248.124,53.2,248.124,51.717,248.124,49.638z M265.631,46.968
				c0-3.709,0-5.786-2.225-5.786c-2.076,0-2.226,1.93-2.226,5.786v19.437h4.45V46.968z"/>
		</g>
		<g>
			<path style="fill:#231F20;" d="M301.983,47.708c0-1.333,0-2.227,0-2.667c0-2.079-0.892-3.266-2.226-3.266
				c-2.074,0-2.223,1.93-2.223,4.746c0,0.446,0,0.743,0,1.187v72.852h-12.762V32.28h11.722v4.452
				c1.04-3.562,4.003-5.492,7.716-5.492c9.348,0,10.535,7.565,10.535,23.146v12.908h-12.762V47.708z"/>
		</g>
		<g>
			<path style="fill:#231F20;" d="M332.844,32.28v88.279h-13.057V32.28H332.844z"/>
		</g>
		<g>
			<path style="fill:#231F20;" d="M339.075,49.638c0-12.608,4.305-18.694,15.279-18.694c10.535,0,15.285,5.789,15.285,17.805
				c0,0.446,0,2.226,0,5.192v44.956c0,3.266,0,5.195,0,6.085c0,11.128-5.193,16.914-15.285,16.914
				c-13.943,0-15.279-9.052-15.279-22.999V53.94C339.075,53.2,339.075,51.717,339.075,49.638z M356.581,46.968
				c0-1.336,0-2.076,0-2.224c0-2.376-0.742-3.562-2.227-3.562c-1.33,0-2.223,1.187-2.223,2.82c0,1.776,0,2.223,0,2.966v58.754
				c0,3.71,0,5.936,2.223,5.936c1.336,0,2.227-1.333,2.227-2.969c0-0.294,0-1.334,0-2.967V46.968z"/>
		</g>
		<g>
			<path style="fill:#231F20;" d="M392.932,47.708c0-1.333,0-2.227,0-2.667c0-2.079-0.893-3.266-2.225-3.266
				c-2.076,0-2.225,1.93-2.225,4.746c0,0.446,0,0.743,0,1.187v72.852h-12.762V32.28h11.721v4.452
				c1.041-3.562,4.004-5.492,7.717-5.492c9.348,0,10.533,7.565,10.533,23.146v12.908h-12.76V47.708z"/>
		</g>
	</g>
	<g>
		<g>
			<path style="fill:#0257A3;" d="M230.567,131.859c0-3.349,1.142-4.969,4.059-4.969c2.797,0,4.061,1.539,4.061,4.73
				c0,0.119,0,0.593,0,1.381v2.168h-3.468v-4.018c0-0.357,0-0.594,0-0.713c0-0.551-0.239-0.826-0.593-0.826
				c-0.553,0-0.592,0.472-0.592,1.221c0,0.119,0,0.196,0,0.318v15.605c0,0.984,0,1.577,0.592,1.577c0.353,0,0.593-0.315,0.593-0.828
				c0-0.081,0-0.314,0-0.749v-5.284h3.468v3.468c0,0.868,0,1.384,0,1.619c0,2.955-1.381,4.494-4.061,4.494
				c-3.705,0-4.059-2.403-4.059-6.113v-11.939C230.567,132.805,230.567,132.411,230.567,131.859z"/>
		</g>
		<g>
			<path style="fill:#0257A3;" d="M239.669,131.859c0-3.349,1.146-4.969,4.06-4.969c2.799,0,4.059,1.539,4.059,4.73
				c0,0.119,0,0.593,0,1.381v11.939c0,0.868,0,1.384,0,1.619c0,2.955-1.377,4.494-4.059,4.494c-3.705,0-4.06-2.403-4.06-6.113
				v-11.939C239.669,132.805,239.669,132.411,239.669,131.859z M244.319,131.152c0-0.357,0-0.555,0-0.594
				c0-0.629-0.196-0.945-0.59-0.945c-0.354,0-0.592,0.316-0.592,0.746c0,0.475,0,0.594,0,0.793v15.605c0,0.984,0,1.577,0.592,1.577
				c0.356,0,0.59-0.354,0.59-0.79c0-0.078,0-0.352,0-0.787V131.152z"/>
		</g>
		<g>
			<path style="fill:#0257A3;" d="M253.977,131.347c0-0.354,0-0.591,0-0.71c0-0.552-0.236-0.868-0.594-0.868
				c-0.553,0-0.588,0.517-0.588,1.262c0,0.122,0,0.196,0,0.316v19.353h-3.391v-23.45h3.114v1.181
				c0.276-0.945,1.064-1.458,2.048-1.458c2.484,0,2.797,2.01,2.797,6.148v17.579h-3.387V131.347z"/>
		</g>
		<g>
			<path style="fill:#0257A3;" d="M266.864,146.56c0,2.955-1.419,4.494-4.06,4.494c-3.706,0-4.06-2.403-4.06-6.113v-3.9h3.468v5.717
				c0,0.984,0,1.577,0.592,1.577c0.357,0,0.592-0.315,0.592-0.828c0-0.081,0-0.314,0-0.749v-2.878c0-2.997-0.592-3.468-2.247-5.556
				c-1.381-1.697-2.404-2.762-2.404-5.322v-2.246c0-2.207,1.496-3.865,4.06-3.865c2.956,0,4.06,1.658,4.06,5.008
				c0,0.041,0,0.158,0,0.435v2.165h-3.468v-3.346c0-0.357,0-0.594,0-0.713c0-0.551-0.235-0.826-0.592-0.826
				c-0.554,0-0.592,0.472-0.592,1.221c0,0.119,0,0.196,0,0.318v1.417c0,2.364,1.381,3.232,3.075,5.477
				c1.184,1.539,1.576,2.836,1.576,4.691v2.203C266.864,145.809,266.864,146.325,266.864,146.56z"/>
		</g>
		<g>
			<path style="fill:#0257A3;" d="M271.594,146.599c0,0.987,0.037,1.577,0.631,1.577c0.353,0,0.55-0.315,0.55-0.828
				c0-0.078,0.038-0.316,0.038-0.749v-19.351h3.352v23.45h-3.075v-1.184c-0.315,0.946-1.023,1.459-2.05,1.459
				c-2.52,0-2.797-1.971-2.797-6.149v-17.576h3.352V146.599z"/>
		</g>
		<g>
			<path style="fill:#0257A3;" d="M281.642,123.778v26.921h-3.471v-26.921H281.642z"/>
		</g>
		<g>
			<path style="fill:#0257A3;" d="M288.066,127.249v2.759h-0.749v17.144c0,0.158,0,0.394,0,0.671c0,0.313,0.236,0.513,0.594,0.513
				c0.035,0,0.117,0,0.155,0v2.401c-0.591,0.196-1.22,0.318-1.813,0.318c-2.361,0-2.403-1.262-2.403-3.468c0-0.042,0-0.12,0-0.197
				v-17.382H283.1v-2.759h0.749v-2.72l3.468-1.103v3.823H288.066z"/>
		</g>
		<g>
			<path style="fill:#0257A3;" d="M292.954,127.249v23.45h-3.471v-23.45H292.954z"/>
		</g>
		<g>
			<path style="fill:#0257A3;" d="M299.532,131.347c0-0.354,0-0.591,0-0.71c0-0.552-0.233-0.868-0.59-0.868
				c-0.553,0-0.591,0.517-0.591,1.262c0,0.122,0,0.196,0,0.316v19.353h-3.391v-23.45h3.116v1.181
				c0.274-0.945,1.061-1.458,2.049-1.458c2.48,0,2.797,2.01,2.797,6.148v17.579h-3.391V131.347z"/>
		</g>
		<g>
			<path style="fill:#0257A3;" d="M312.301,147.467c0,3.705-0.274,5.95-4.729,5.95c-1.419,0-2.642-0.233-3.782-0.787l0.904-2.682
				c0.829,0.552,1.616,0.788,2.445,0.788c1.221,0,1.774-0.511,1.774-1.691c0-0.041,0-0.199,0-0.436
				c-0.315,0.671-0.948,1.025-1.735,1.025c-2.484,0-2.797-2.09-2.797-6.188V133.12c0-4.178,0.312-6.148,2.797-6.148
				c0.909,0,1.459,0.436,2.01,1.381v-1.103h3.113v18.603C312.301,146.402,312.301,146.955,312.301,147.467z M308.914,131.347
				c0-0.433,0-0.668,0-0.749c0-0.513-0.238-0.829-0.591-0.829c-0.594,0-0.594,0.591-0.594,1.578v13.914c0,0.984,0,1.536,0.594,1.536
				c0.353,0,0.591-0.316,0.591-0.749c0-0.077,0-0.355,0-0.787V131.347z"/>
		</g>
	</g>
	<g>
		<g>
			<path style="fill:#0257A3;" d="M327.772,146.56c0,2.955-1.42,4.494-4.062,4.494c-3.703,0-4.059-2.403-4.059-6.113v-3.9h3.469
				v5.717c0,0.984,0,1.577,0.59,1.577c0.357,0,0.594-0.315,0.594-0.828c0-0.081,0-0.314,0-0.749v-2.878
				c0-2.997-0.594-3.468-2.25-5.556c-1.379-1.697-2.402-2.762-2.402-5.322v-2.246c0-2.207,1.496-3.865,4.059-3.865
				c2.955,0,4.062,1.658,4.062,5.008c0,0.041,0,0.158,0,0.435v2.165h-3.469v-3.346c0-0.357,0-0.594,0-0.713
				c0-0.551-0.236-0.826-0.594-0.826c-0.551,0-0.59,0.472-0.59,1.221c0,0.119,0,0.196,0,0.318v1.417
				c0,2.364,1.377,3.232,3.074,5.477c1.184,1.539,1.578,2.836,1.578,4.691v2.203C327.772,145.809,327.772,146.325,327.772,146.56z"
				/>
		</g>
		<g>
			<path style="fill:#0257A3;" d="M328.952,131.859c0-3.349,1.143-4.969,4.059-4.969c2.801,0,4.059,1.539,4.059,4.73
				c0,0.119,0,0.593,0,1.381v6.07h-4.648v7.686c0,0.984,0,1.577,0.59,1.577c0.355,0,0.592-0.315,0.592-0.828
				c0-0.081,0-0.314,0-0.749v-5.284h3.467v3.468c0,0.868,0,1.384,0,1.619c0,2.955-1.377,4.494-4.059,4.494
				c-3.705,0-4.059-2.403-4.059-6.113v-11.939C328.952,132.805,328.952,132.411,328.952,131.859z M333.602,131.152
				c0-0.99,0-1.539-0.592-1.539c-0.549,0-0.59,0.511-0.59,1.539v5.159h1.182V131.152z"/>
		</g>
		<g>
			<path style="fill:#0257A3;" d="M343.256,131.347c0-0.354,0-0.591,0-0.71c0-0.552-0.238-0.868-0.59-0.868
				c-0.551,0-0.59,0.517-0.59,1.262c0,0.122,0,0.196,0,0.316v19.353h-3.389v-23.45h3.111v1.181c0.277-0.945,1.065-1.458,2.049-1.458
				c2.484,0,2.799,2.01,2.799,6.148v3.427h-3.391V131.347z"/>
		</g>
		<g>
			<path style="fill:#0257A3;" d="M351.18,127.249v11.35c0,4.61,0.314,7.41,0.629,8.275c0.316-0.903,0.594-3.704,0.594-8.275v-11.35
				h3.35v10.798c0,4.217-0.397,8.278-2.01,12.652h-3.904c-1.615-4.374-2.01-8.436-2.01-12.652v-10.798H351.18z"/>
		</g>
		<g>
			<path style="fill:#0257A3;" d="M361.034,127.249v23.45h-3.469v-23.45H361.034z"/>
		</g>
		<g>
			<path style="fill:#0257A3;" d="M362.686,131.859c0-3.349,1.145-4.969,4.06-4.969c2.797,0,4.057,1.539,4.057,4.73
				c0,0.119,0,0.593,0,1.381v2.168h-3.469v-4.018c0-0.357,0-0.594,0-0.713c0-0.551-0.234-0.826-0.588-0.826
				c-0.551,0-0.592,0.472-0.592,1.221c0,0.119,0,0.196,0,0.318v15.605c0,0.984,0,1.577,0.592,1.577c0.354,0,0.588-0.315,0.588-0.828
				c0-0.081,0-0.314,0-0.749v-5.284h3.469v3.468c0,0.868,0,1.384,0,1.619c0,2.955-1.375,4.494-4.057,4.494
				c-3.707,0-4.06-2.403-4.06-6.113v-11.939C362.686,132.805,362.686,132.411,362.686,131.859z"/>
		</g>
		<g>
			<path style="fill:#0257A3;" d="M371.79,131.859c0-3.349,1.143-4.969,4.059-4.969c2.799,0,4.062,1.539,4.062,4.73
				c0,0.119,0,0.593,0,1.381v6.07h-4.65v7.686c0,0.984,0,1.577,0.588,1.577c0.355,0,0.594-0.315,0.594-0.828
				c0-0.081,0-0.314,0-0.749v-5.284h3.469v3.468c0,0.868,0,1.384,0,1.619c0,2.955-1.381,4.494-4.062,4.494
				c-3.703,0-4.059-2.403-4.059-6.113v-11.939C371.79,132.805,371.79,132.411,371.79,131.859z M376.442,131.152
				c0-0.99,0-1.539-0.594-1.539c-0.551,0-0.588,0.511-0.588,1.539v5.159h1.182V131.152z"/>
		</g>
		<g>
			<path style="fill:#0257A3;" d="M389.212,146.56c0,2.955-1.42,4.494-4.061,4.494c-3.705,0-4.06-2.403-4.06-6.113v-3.9h3.469v5.717
				c0,0.984,0,1.577,0.592,1.577c0.354,0,0.592-0.315,0.592-0.828c0-0.081,0-0.314,0-0.749v-2.878c0-2.997-0.592-3.468-2.248-5.556
				c-1.381-1.697-2.404-2.762-2.404-5.322v-2.246c0-2.207,1.498-3.865,4.06-3.865c2.955,0,4.061,1.658,4.061,5.008
				c0,0.041,0,0.158,0,0.435v2.165h-3.469v-3.346c0-0.357,0-0.594,0-0.713c0-0.551-0.238-0.826-0.592-0.826
				c-0.553,0-0.592,0.472-0.592,1.221c0,0.119,0,0.196,0,0.318v1.417c0,2.364,1.379,3.232,3.074,5.477
				c1.182,1.539,1.578,2.836,1.578,4.691v2.203C389.212,145.809,389.212,146.325,389.212,146.56z"/>
		</g>
	</g>
</g>
</svg>
